<svg width="17.96" height="17.96" viewBox="0 0 19 19" fill="none" xmlns="http://www.w3.org/2000/svg">
<path d="M16.562 8.48434L4.767 1.75377C4.51831 1.61446 4.23311 1.55417 3.94932 1.58092C3.66553 1.60766 3.3966 1.72017 3.17832 1.90348C2.96003 2.0868 2.80273 2.33223 2.72734 2.60712C2.65194 2.88202 2.66203 3.17335 2.75625 3.44238L4.87438 9.71395L2.75625 15.9855C2.68179 16.1971 2.65911 16.4234 2.69011 16.6456C2.72112 16.8677 2.80491 17.0792 2.93447 17.2623C3.06403 17.4454 3.23558 17.5948 3.43475 17.6979C3.63392 17.8011 3.85491 17.855 4.07921 17.8552C4.32041 17.8547 4.55746 17.7924 4.7677 17.6741L4.77402 17.6699L16.5648 10.9274C16.781 10.805 16.9608 10.6275 17.086 10.4129C17.2111 10.1983 17.277 9.9543 17.277 9.70588C17.277 9.45746 17.2111 9.21349 17.086 8.99888C16.9608 8.78427 16.781 8.60671 16.5648 8.48434H16.562ZM4.58382 15.8381L6.36788 10.5561H10.2553C10.4787 10.5561 10.6929 10.4674 10.8509 10.3095C11.0088 10.1515 11.0975 9.93732 11.0975 9.71395C11.0975 9.49059 11.0088 9.27637 10.8509 9.11843C10.6929 8.96048 10.4787 8.87175 10.2553 8.87175H6.36788L4.58312 3.58836L15.3043 9.70623L4.58382 15.8381Z" fill="#F79520"/>
</svg>
